#N canvas 312 220 786 485 10;
#X obj 64 337 soundfiler;
#X obj 97 218 r testName;
#X obj 162 71 loadbang;
#X obj 64 277 symbol;
#X obj 48 253 del \$1;
#X obj 301 218 tabwrite~ DATA;
#X msg 223 101 \; pd dsp 1;
#X obj 300 71 inlet~;
#X obj 40 121 f \$1;
#X obj 403 218 table DATA \$1;
#X obj 48 145 /;
#X obj 76 121 samplerate~;
#X obj 41 96 t b b;
#X obj 48 167 * 1000;
#X obj 48 189 + 10;
#X text 34 -5 Test case. First argument is the number of frames to
generate \, first inlet is the signal to test against. You must also
send the name of the test case on start of the patch as a message to
[r testName];
#X obj 97 253 symbol;
#X msg 64 360 \; pd quit;
#X msg 64 299 write -wave -bytes 2 -rate 44100 ../../test-files/tmp/\$1.wav
DATA;
#X connect 0 0 17 0;
#X connect 1 0 16 0;
#X connect 2 0 6 0;
#X connect 2 0 12 0;
#X connect 2 0 5 0;
#X connect 3 0 18 0;
#X connect 4 0 3 0;
#X connect 7 0 5 0;
#X connect 8 0 10 0;
#X connect 10 0 13 0;
#X connect 11 0 10 1;
#X connect 12 0 8 0;
#X connect 12 1 11 0;
#X connect 13 0 14 0;
#X connect 14 0 4 0;
#X connect 16 0 3 1;
#X connect 18 0 0 0;
